<?xml version="1.0" encoding="utf-8"?>
<!-- Generator: Adobe Illustrator 19.1.0, SVG Export Plug-In . SVG Version: 6.00 Build 0)  -->
<svg version="1.1" id="Layer_1" xmlns="http://www.w3.org/2000/svg" xmlns:xlink="http://www.w3.org/1999/xlink" x="0px" y="0px"
	 viewBox="-66 271.5 658.5 70.5" style="enable-background:new -66 271.5 658.5 70.5;" xml:space="preserve">
<style type="text/css">
	.st0{fill:#FFFFFF;}
	.st1{enable-background:new    ;}
</style>
<g>
	<polygon class="st0" points="-36.1,278.8 -48.1,331.8 -33.3,331.8 -28,305 -34.8,278.8 	"/>
	<polygon class="st0" points="16.3,278.8 15,278.8 8.2,305 13.5,331.8 28.4,331.8 	"/>
	<path class="st0" d="M-0.5,278.3l-3,13.4h-12.6l-3.2-13.4h-13l13.1,53.4h6.6h5.8h6.1l13.2-53.4H-0.5z M-9.7,319.1l-4.2-17.9h8.3
		L-9.7,319.1z"/>
</g>
<g class="st1">
	<path class="st0" d="M59.6,322.5l13-32.4H77l12.9,32.4h-3.4c-0.4,0-0.7-0.1-1-0.3c-0.2-0.2-0.4-0.4-0.5-0.7l-3-7.8H67.5l-3,7.8
		c-0.1,0.3-0.3,0.5-0.5,0.7c-0.3,0.2-0.6,0.3-0.9,0.3H59.6z M68.7,310.5h12.1l-5.1-13.2c-0.3-0.8-0.7-1.8-1-3
		c-0.2,0.6-0.3,1.2-0.5,1.7c-0.2,0.5-0.3,1-0.5,1.4L68.7,310.5z"/>
	<path class="st0" d="M91.7,311.2c0-1.7,0.2-3.3,0.7-4.7c0.4-1.5,1.1-2.7,2-3.8c0.9-1.1,1.9-1.9,3.1-2.5c1.2-0.6,2.6-0.9,4.1-0.9
		c1.4,0,2.6,0.2,3.6,0.7c1,0.5,1.9,1.2,2.7,2v-12.7h4v33.2h-2.4c-0.6,0-0.9-0.3-1.1-0.8L108,319c-1,1.2-2.1,2.1-3.4,2.8
		c-1.3,0.7-2.7,1.1-4.3,1.1c-1.3,0-2.5-0.2-3.6-0.7c-1.1-0.5-2-1.2-2.7-2.2s-1.3-2.2-1.7-3.6C91.9,314.8,91.7,313.1,91.7,311.2z
		 M95.9,311.2c0,1.5,0.1,2.8,0.4,3.8c0.3,1.1,0.6,1.9,1.1,2.6c0.5,0.7,1.1,1.2,1.8,1.5c0.7,0.3,1.5,0.5,2.5,0.5
		c1.3,0,2.5-0.3,3.5-0.9s1.9-1.5,2.7-2.6v-11.1c-0.7-1-1.5-1.7-2.4-2.1s-1.9-0.6-2.9-0.6c-2.1,0-3.8,0.8-4.9,2.3
		C96.4,306.2,95.9,308.4,95.9,311.2z"/>
	<path class="st0" d="M118.6,322.5v-22.9h2.3c0.4,0,0.7,0.1,0.9,0.2c0.2,0.2,0.3,0.4,0.3,0.8l0.3,3.5c0.8-1.6,1.8-2.8,2.9-3.6
		c1.1-0.9,2.5-1.3,4.1-1.3c0.6,0,1.2,0.1,1.7,0.2c0.5,0.1,1,0.3,1.4,0.6l-0.5,2.9c-0.1,0.4-0.3,0.6-0.7,0.6c-0.2,0-0.5-0.1-1-0.2
		s-1.1-0.2-1.8-0.2c-1.4,0-2.6,0.4-3.5,1.2c-0.9,0.8-1.7,2-2.4,3.6v14.7H118.6z"/>
	<path class="st0" d="M136.5,292.4c0-0.4,0.1-0.8,0.2-1.1c0.2-0.4,0.4-0.7,0.6-0.9c0.3-0.3,0.6-0.5,0.9-0.6s0.7-0.2,1.1-0.2
		c0.4,0,0.8,0.1,1.1,0.2s0.7,0.4,0.9,0.6c0.3,0.3,0.5,0.6,0.6,0.9c0.2,0.4,0.2,0.7,0.2,1.1c0,0.4-0.1,0.8-0.2,1.1
		c-0.2,0.3-0.4,0.6-0.6,0.9c-0.3,0.3-0.6,0.5-0.9,0.6s-0.7,0.2-1.1,0.2c-0.4,0-0.8-0.1-1.1-0.2c-0.3-0.1-0.6-0.4-0.9-0.6
		c-0.3-0.3-0.5-0.6-0.6-0.9C136.5,293.2,136.5,292.8,136.5,292.4z M137.3,322.5v-22.9h4v22.9H137.3z"/>
	<path class="st0" d="M147.2,316.8c0-0.9,0.2-1.8,0.8-2.6c0.5-0.8,1.3-1.6,2.4-2.2s2.6-1.2,4.3-1.6c1.8-0.4,4-0.7,6.6-0.7v-1.8
		c0-1.8-0.4-3.2-1.1-4.1c-0.8-0.9-1.9-1.4-3.4-1.4c-1,0-1.8,0.1-2.5,0.4c-0.7,0.3-1.2,0.5-1.7,0.9c-0.5,0.3-0.9,0.6-1.3,0.8
		c-0.4,0.3-0.7,0.4-1.1,0.4c-0.3,0-0.5-0.1-0.7-0.2c-0.2-0.1-0.4-0.3-0.5-0.6l-0.7-1.3c1.3-1.2,2.6-2.1,4.1-2.7s3.1-0.9,4.9-0.9
		c1.3,0,2.4,0.2,3.4,0.6c1,0.4,1.8,1,2.5,1.8c0.7,0.8,1.2,1.7,1.5,2.7c0.3,1.1,0.5,2.2,0.5,3.5v14.7h-1.7c-0.4,0-0.7-0.1-0.9-0.2
		c-0.2-0.1-0.4-0.4-0.4-0.8l-0.7-2.2c-0.6,0.6-1.2,1.1-1.8,1.5c-0.6,0.4-1.2,0.8-1.8,1.1c-0.6,0.3-1.3,0.5-2.1,0.7
		c-0.7,0.1-1.5,0.2-2.4,0.2c-0.9,0-1.7-0.1-2.5-0.4c-0.8-0.2-1.5-0.6-2-1.1c-0.6-0.5-1-1.1-1.4-1.9
		C147.3,318.7,147.2,317.8,147.2,316.8z M151,316.6c0,0.6,0.1,1.1,0.3,1.5c0.2,0.4,0.5,0.8,0.8,1.1c0.3,0.3,0.7,0.5,1.2,0.6
		c0.4,0.1,0.9,0.2,1.5,0.2c0.7,0,1.4-0.1,1.9-0.2c0.6-0.1,1.1-0.3,1.7-0.6s1-0.6,1.5-1c0.5-0.4,0.9-0.8,1.4-1.3v-4.7
		c-1.9,0.1-3.4,0.2-4.7,0.4c-1.3,0.2-2.4,0.5-3.2,0.9c-0.8,0.4-1.4,0.8-1.8,1.3S151,316,151,316.6z"/>
	<path class="st0" d="M171.3,322.5v-22.9h2.4c0.6,0,0.9,0.3,1.1,0.8l0.3,2.5c1-1.1,2.1-2,3.3-2.7s2.6-1,4.3-1c1.2,0,2.3,0.2,3.3,0.6
		c1,0.4,1.7,1,2.4,1.8c0.6,0.8,1.1,1.7,1.5,2.7c0.3,1.1,0.5,2.3,0.5,3.6v14.6h-4v-14.6c0-1.7-0.4-3.1-1.2-4c-0.8-1-2-1.4-3.6-1.4
		c-1.2,0-2.3,0.3-3.3,0.9c-1,0.6-2,1.3-2.8,2.3v16.9H171.3z"/>
	<path class="st0" d="M205.8,322.5v-32.4h3.2c0.4,0,0.7,0,0.9,0.1c0.2,0.1,0.4,0.3,0.6,0.6l11.2,20c0.2,0.4,0.4,0.7,0.6,1.1
		c0.2,0.4,0.3,0.8,0.5,1.2c0.1-0.4,0.3-0.8,0.5-1.2c0.2-0.4,0.4-0.8,0.6-1.1l11-19.9c0.2-0.4,0.4-0.6,0.6-0.6
		c0.2-0.1,0.5-0.1,0.9-0.1h3.2v32.4h-3.8v-23.8c0-0.3,0-0.7,0-1s0-0.7,0.1-1.1l-11.1,20.3c-0.4,0.7-0.9,1-1.6,1h-0.6
		c-0.7,0-1.2-0.3-1.6-1l-11.3-20.3c0,0.4,0.1,0.8,0.1,1.2s0,0.7,0,1v23.8H205.8z"/>
	<path class="st0" d="M246.4,292.4c0-0.4,0.1-0.8,0.2-1.1c0.2-0.4,0.4-0.7,0.6-0.9c0.3-0.3,0.6-0.5,0.9-0.6s0.7-0.2,1.1-0.2
		c0.4,0,0.8,0.1,1.1,0.2s0.7,0.4,0.9,0.6c0.3,0.3,0.5,0.6,0.6,0.9c0.2,0.4,0.2,0.7,0.2,1.1c0,0.4-0.1,0.8-0.2,1.1
		c-0.2,0.3-0.4,0.6-0.6,0.9c-0.3,0.3-0.6,0.5-0.9,0.6s-0.7,0.2-1.1,0.2c-0.4,0-0.8-0.1-1.1-0.2c-0.3-0.1-0.6-0.4-0.9-0.6
		c-0.3-0.3-0.5-0.6-0.6-0.9C246.4,293.2,246.4,292.8,246.4,292.4z M247.2,322.5v-22.9h4v22.9H247.2z"/>
	<path class="st0" d="M258.7,322.5v-33.3h4v33.3H258.7z"/>
	<path class="st0" d="M270.3,322.5v-33.3h4v33.3H270.3z"/>
	<path class="st0" d="M279.8,310.6c0-1.6,0.2-3.1,0.7-4.5c0.5-1.4,1.2-2.6,2.1-3.6c0.9-1,2-1.8,3.4-2.4c1.3-0.6,2.8-0.9,4.5-0.9
		c1.4,0,2.6,0.2,3.8,0.7c1.2,0.5,2.2,1.1,3,2s1.5,1.9,2,3.2c0.5,1.3,0.7,2.7,0.7,4.3c0,0.6-0.1,1.1-0.2,1.3
		c-0.1,0.2-0.4,0.3-0.8,0.3h-15.2c0,1.4,0.2,2.7,0.6,3.8c0.4,1.1,0.9,2,1.5,2.7s1.4,1.2,2.3,1.6c0.9,0.4,1.9,0.5,2.9,0.5
		c1,0,1.9-0.1,2.6-0.4s1.4-0.5,1.9-0.8c0.5-0.3,1-0.5,1.3-0.7c0.4-0.2,0.7-0.3,0.9-0.3c0.3,0,0.6,0.1,0.8,0.4l1.1,1.5
		c-0.5,0.6-1.1,1.1-1.8,1.6c-0.7,0.4-1.4,0.8-2.2,1.1c-0.8,0.3-1.6,0.5-2.4,0.6s-1.7,0.2-2.5,0.2c-1.6,0-3.1-0.3-4.4-0.8
		c-1.3-0.5-2.5-1.3-3.5-2.4s-1.7-2.3-2.3-3.8C280.1,314.3,279.8,312.6,279.8,310.6z M283.9,308.6h12.4c0-0.9-0.1-1.8-0.4-2.6
		c-0.2-0.8-0.6-1.5-1.1-2s-1.1-1-1.8-1.3c-0.7-0.3-1.5-0.5-2.5-0.5c-1.9,0-3.5,0.6-4.6,1.7C284.9,305,284.2,306.6,283.9,308.6z"/>
	<path class="st0" d="M305.1,322.5v-22.9h2.3c0.4,0,0.7,0.1,0.9,0.2c0.2,0.2,0.3,0.4,0.3,0.8l0.3,3.5c0.8-1.6,1.8-2.8,2.9-3.6
		c1.1-0.9,2.5-1.3,4.1-1.3c0.6,0,1.2,0.1,1.7,0.2c0.5,0.1,1,0.3,1.4,0.6l-0.5,2.9c-0.1,0.4-0.3,0.6-0.7,0.6c-0.2,0-0.5-0.1-1-0.2
		s-1.1-0.2-1.8-0.2c-1.4,0-2.6,0.4-3.5,1.2s-1.7,2-2.4,3.6v14.7H305.1z"/>
</g>
<g class="st1">
	<path class="st0" d="M372.4,322.5v-28.7h10.7c2.1,0,4,0.3,5.8,1c1.7,0.7,3.2,1.7,4.5,2.9c1.2,1.3,2.2,2.8,2.9,4.5
		c0.7,1.8,1,3.7,1,5.9c0,2.1-0.3,4.1-1,5.9c-0.7,1.8-1.6,3.3-2.9,4.5c-1.2,1.3-2.7,2.2-4.5,2.9c-1.7,0.7-3.6,1-5.8,1H372.4z
		 M376.3,319.4h6.8c1.5,0,2.9-0.3,4.2-0.8s2.3-1.2,3.2-2.2c0.9-0.9,1.6-2.1,2-3.5c0.5-1.4,0.7-3,0.7-4.7c0-1.8-0.2-3.3-0.7-4.7
		c-0.5-1.4-1.2-2.6-2-3.5s-1.9-1.7-3.2-2.2s-2.6-0.8-4.2-0.8h-6.8V319.4z"/>
	<path class="st0" d="M415.5,322.5v-28.7h17.7v3.2h-13.8v9.5h11.2v3.1h-11.2v9.8h13.8v3.2H415.5z"/>
	<path class="st0" d="M449.4,319.1l1.1-1.9c0.1-0.1,0.2-0.3,0.4-0.4c0.2-0.1,0.3-0.2,0.5-0.2c0.3,0,0.6,0.2,1,0.5
		c0.4,0.3,0.8,0.6,1.3,1c0.5,0.4,1.2,0.7,2,1c0.8,0.3,1.7,0.5,2.8,0.5c0.9,0,1.8-0.1,2.5-0.4c0.7-0.3,1.3-0.6,1.8-1.1
		c0.5-0.5,0.9-1,1.1-1.7c0.3-0.6,0.4-1.4,0.4-2.2c0-0.9-0.2-1.6-0.6-2.1c-0.4-0.5-0.9-1-1.5-1.4c-0.6-0.4-1.4-0.7-2.2-1
		c-0.8-0.3-1.7-0.5-2.5-0.8s-1.7-0.6-2.5-0.9s-1.6-0.8-2.2-1.4c-0.6-0.6-1.2-1.3-1.6-2.1c-0.4-0.9-0.6-1.9-0.6-3.2c0-1,0.2-2,0.6-3
		s1-1.8,1.7-2.5c0.7-0.7,1.7-1.3,2.8-1.8c1.1-0.4,2.4-0.7,3.8-0.7c1.6,0,3.1,0.3,4.4,0.8c1.3,0.5,2.5,1.3,3.5,2.2l-0.9,1.8
		c-0.1,0.2-0.2,0.3-0.4,0.4c-0.1,0.1-0.3,0.2-0.5,0.2c-0.2,0-0.5-0.1-0.8-0.3c-0.3-0.2-0.7-0.5-1.1-0.7c-0.5-0.3-1-0.5-1.7-0.7
		c-0.7-0.2-1.4-0.3-2.3-0.3c-0.9,0-1.6,0.1-2.3,0.4s-1.2,0.6-1.7,1c-0.5,0.4-0.8,0.9-1,1.4c-0.2,0.5-0.3,1.1-0.3,1.8
		c0,0.8,0.2,1.5,0.6,2c0.4,0.5,0.9,1,1.6,1.4c0.6,0.4,1.4,0.7,2.2,1c0.8,0.3,1.7,0.6,2.5,0.9c0.9,0.3,1.7,0.6,2.5,1
		c0.8,0.4,1.6,0.8,2.2,1.4c0.6,0.6,1.2,1.2,1.6,2c0.4,0.8,0.6,1.8,0.6,3c0,1.2-0.2,2.4-0.6,3.5c-0.4,1.1-1.1,2-1.9,2.9
		c-0.8,0.8-1.8,1.4-3,1.9s-2.6,0.7-4.1,0.7c-1.8,0-3.5-0.3-5.1-1C451.8,321.2,450.5,320.3,449.4,319.1z"/>
	<path class="st0" d="M486.7,322.5v-28.7h3.9v28.7H486.7z"/>
	<path class="st0" d="M509.5,308.2c0-2.2,0.3-4.2,1-6s1.7-3.3,2.9-4.6s2.8-2.3,4.6-3s3.8-1.1,6.1-1.1c1.1,0,2.2,0.1,3.2,0.3
		s1.9,0.4,2.7,0.7c0.8,0.3,1.6,0.7,2.3,1.1s1.4,1,2,1.5l-1.1,1.8c-0.2,0.4-0.5,0.5-0.9,0.5c-0.2,0-0.4-0.1-0.7-0.2
		c-0.3-0.2-0.7-0.4-1.1-0.7c-0.4-0.3-0.9-0.5-1.5-0.8s-1.3-0.5-2.1-0.6s-1.8-0.3-2.9-0.3c-1.6,0-3.1,0.3-4.4,0.8s-2.4,1.3-3.3,2.3
		s-1.6,2.2-2.1,3.6s-0.7,3-0.7,4.7c0,1.8,0.3,3.4,0.8,4.8c0.5,1.4,1.2,2.6,2.2,3.6s2,1.7,3.3,2.3c1.3,0.5,2.7,0.8,4.2,0.8
		c0.8,0,1.5,0,2.1-0.1s1.3-0.2,1.8-0.3s1.1-0.3,1.6-0.5c0.5-0.2,1-0.4,1.5-0.7v-6.2h-4.4c-0.2,0-0.4-0.1-0.6-0.2
		c-0.2-0.2-0.2-0.3-0.2-0.6v-2.3h8.8v11c-0.7,0.5-1.5,1-2.3,1.4s-1.6,0.7-2.5,1s-1.8,0.5-2.9,0.6c-1,0.1-2.1,0.2-3.3,0.2
		c-2.1,0-4-0.4-5.7-1.1s-3.2-1.7-4.5-3s-2.2-2.8-2.9-4.6S509.5,310.4,509.5,308.2z"/>
	<path class="st0" d="M553.6,322.5v-28.7h2c0.4,0,0.6,0,0.8,0.1s0.3,0.3,0.6,0.5l16.6,21.6c0-0.4-0.1-0.7-0.1-1s0-0.6,0-0.9v-20.3
		h3.4v28.7h-2c-0.3,0-0.6-0.1-0.8-0.2s-0.4-0.3-0.6-0.5l-16.6-21.6c0,0.3,0,0.7,0.1,1s0,0.6,0,0.9v20.4H553.6z"/>
</g>
<rect x="344.4" y="282.1" class="st0" width="4" height="53"/>
</svg>
