<?xml version="1.0" encoding="utf-8"?>
<!-- Generator: Adobe Illustrator 19.1.0, SVG Export Plug-In . SVG Version: 6.00 Build 0)  -->
<svg version="1.1" id="Layer_1" xmlns="http://www.w3.org/2000/svg" xmlns:xlink="http://www.w3.org/1999/xlink" x="0px" y="0px"
	 viewBox="-100 271.5 589.4 70.5" style="enable-background:new -100 271.5 589.4 70.5;" xml:space="preserve">
<style type="text/css">
	.st0{fill:#FFFFFF;}
</style>
<g>
	<polygon class="st0" points="-70.2,282.9 -80.1,326.8 -67.8,326.8 -63.5,304.7 -69.1,282.9 	"/>
	<polygon class="st0" points="-26.7,282.9 -27.8,282.9 -33.5,304.7 -29.1,326.8 -16.7,326.8 	"/>
	<path class="st0" d="M-40.7,282.6l-2.5,11.1h-10.4l-2.7-11.1H-67l10.9,44.3h5.5h4.8h5.1l10.9-44.3H-40.7z M-48.3,316.4l-3.5-14.8
		h6.9L-48.3,316.4z"/>
</g>
<g>
	<path class="st0" d="M16.6,288.9h5.5l11,33.8h-4.8l-2.4-8h-13l-2.5,8H6.1L16.6,288.9z M19.3,292.9L19.3,292.9l-5.4,18h10.8
		L19.3,292.9z"/>
	<path class="st0" d="M50.6,288.9h3.8v33.8h-3.8v-2.8h-0.1c-1.3,2.2-2.9,3.3-5.4,3.3c-3.8,0-7.6-1.5-7.6-11.9
		c0-5.9,0.2-12.7,7.8-12.7c2.2,0,3.9,1,5.2,2.9h0.1V288.9z M46.1,301.7c-4.1,0-4.7,3.3-4.7,9.6c0,3.6,0,8.7,4.8,8.7
		c4.3,0,4.3-5.3,4.3-10.1C50.6,306.7,50.4,301.7,46.1,301.7z"/>
	<path class="st0" d="M66.1,302.6L66.1,302.6c1.7-3.6,3.6-4,7.4-4v4c-0.7-0.1-1.4-0.2-2.1-0.2c-4.3,0-5.3,3.2-5.3,6.4v13.9h-3.8V299
		h3.8L66.1,302.6L66.1,302.6z"/>
	<path class="st0" d="M77.9,288.9h4.3v4.1h-4.3V288.9z M81.9,322.6h-3.8V299h3.8V322.6z"/>
	<path class="st0" d="M100.5,319.2L100.5,319.2c-1.3,2.7-3.1,3.9-6,3.9c-5,0-6.5-3.2-6.5-7.8c0-7.2,7-7.5,12.4-7.3
		c0.1-3.1,0.1-6.5-4-6.5c-2.6,0-3.9,1.7-3.7,4.2h-4.2c0.2-5.3,3-7.1,8-7.1c6.1,0,7.7,3.1,7.7,7.1v11.4c0,1.9,0.2,3.8,0.5,5.6h-4.2
		V319.2z M91.9,315.6c0,2.3,1.1,4.3,3.7,4.3c2.3,0,5.2-1.4,4.9-9.1C96.8,311,91.9,310.6,91.9,315.6z"/>
	<path class="st0" d="M125,322.6v-16.3c0-2.5-0.9-4.6-4.2-4.6c-4.2,0-4.8,3.7-4.8,7v14h-3.8v-18.8c0-1.6-0.1-3.3-0.2-4.9h4.1v3h0.2
		c1.5-2.7,3.3-3.5,6.3-3.5c5,0,6.3,3,6.3,7.7v16.4H125z"/>
	<path class="st0" d="M152.3,322.6h-4v-33.7h7l8.5,28.3h0.1l8.6-28.3h7.1v33.8h-4.3v-30h-0.1l-9.4,30h-4.1l-9.3-30h-0.1V322.6z"/>
	<path class="st0" d="M187.1,288.9h4.3v4.1h-4.3V288.9z M191.2,322.6h-3.8V299h3.8V322.6z"/>
	<path class="st0" d="M202.5,322.6h-3.8v-33.7h3.8V322.6z"/>
	<path class="st0" d="M213.8,322.6H210v-33.7h3.8V322.6z"/>
	<path class="st0" d="M224.7,312.1c0,6.6,1.8,7.9,4.8,7.9c2.6,0,4-2.1,4.1-4.5h4.2c0,5.2-3.3,7.6-8.2,7.6c-5,0-9-1.5-9-11.9
		c0-6.9,0.8-12.6,9-12.6c6.7,0,8.4,3.7,8.4,11.5v2H224.7z M233.9,309.2c0-6.9-1.9-7.7-4.7-7.7c-2.4,0-4.4,1.2-4.5,7.7H233.9z"/>
	<path class="st0" d="M249,302.6L249,302.6c1.7-3.6,3.6-4,7.4-4v4c-0.7-0.1-1.4-0.2-2.1-0.2c-4.3,0-5.3,3.2-5.3,6.4v13.9h-3.8V299
		h3.8V302.6z"/>
</g>
<g>
	<path class="st0" d="M278.1,295.1h8.7c3.6,0,6.2,1.3,7.6,4.3c1.1,2.4,1.3,8.1,1.3,9c0,6-0.5,9.5-1.7,11.4c-1.5,2.4-4.4,3.7-9.3,3.7
		h-6.5v-28.4H278.1z M281.7,320.3h3.4c5,0,6.9-1.9,6.9-8.5v-5.7c0-5.7-1.8-7.9-5.5-7.9h-4.8V320.3z"/>
	<path class="st0" d="M309.8,323.5v-28.4h14.6v3.1h-11v9.1h10.2v3.2h-10.2v9.8h11.2v3.2H309.8z"/>
	<path class="st0" d="M340.1,315v0.8c0,3.8,2.4,5.1,4.8,5.1c2.9,0,5.1-1.2,5.1-4.6c0-6.3-12.7-5.6-12.7-14.1c0-5,3.6-7.7,8.3-7.7
		c5.2,0,8.1,2.5,7.9,8.3h-3.8c0-3.1-0.9-5.1-4.4-5.1c-2.2,0-4.4,1.1-4.4,4.2c0,6.2,12.7,5.3,12.7,14.3c0,6-4.1,7.9-8.8,7.9
		c-8.4,0.1-8.4-6.3-8.3-9h3.6V315z"/>
	<path class="st0" d="M371.1,323.5h-3.6v-28.4h3.6V323.5z"/>
	<path class="st0" d="M399.4,302.7c0-3.3-1.4-5.1-5-5.1c-1.1,0-5.2,0.2-5.2,6.1v9.6c0,6.2,1.8,7.8,5.2,7.8c2.6,0,4.3-0.7,5.1-1.3
		v-8.5h-5.2v-3.1h8.8V322c-2.3,1.3-5,2.1-8.7,2.1c-6,0-8.9-3.1-8.9-11v-9.3c0-5.7,2.9-9.3,8.9-9.3c6.1,0,9,2.2,8.8,8.2
		C403.2,302.7,399.4,302.7,399.4,302.7z"/>
	<path class="st0" d="M437.3,295.1v28.4h-4.9l-11.2-24.6h-0.1v24.6h-3.2v-28.4h5.1l11,24.3h0.1v-24.3H437.3z"/>
</g>
</svg>
